<svg width="15" height="14" xmlns="http://www.w3.org/2000/svg">

 <g>
  <title>background</title>
  <rect fill="none" id="canvas_background" height="16" width="17" y="-1" x="-1"/>
 </g>
 <g>
  <title>Layer 1</title>
  <path id="svg_1" fill-rule="nonzero" fill="#13c0f9" d="m14.378906,5.667969l-2.3125,-3.285157c-0.050781,-0.074218 -0.140625,-0.121093 -0.234375,-0.121093l-9.230469,0c-0.09375,0 -0.183593,0.046875 -0.234374,0.121093l-2.3125,3.273438c-0.007813,0.019531 -0.019532,0.035156 -0.03125,0.050781c-0.046876,0.085938 -0.027344,0.199219 0.042968,0.277344l1.179688,1.25c0.101562,0.113281 0.273437,0.121094 0.394531,0.027344c0.117187,-0.101563 0.128906,-0.261719 0.027344,-0.375l-0.765625,-0.8125l3.789062,0l1.90625,6.066406l-2.152344,-2.292969c-0.101562,-0.109375 -0.28125,-0.121094 -0.398437,-0.023437c-0.121094,0.09375 -0.132813,0.261719 -0.023437,0.371093l2.980468,3.175782c0.050782,0.058594 0.128906,0.089844 0.207032,0.089844c0.085937,0 0.160156,-0.03125 0.214843,-0.089844l3.171875,-3.378906c0.101563,-0.113282 0.089844,-0.28125 -0.027344,-0.375c-0.121093,-0.09375 -0.292968,-0.082032 -0.394531,0.027343l-2.34375,2.496094l1.902344,-6.066406l3.789063,0l-1.753907,1.867187c-0.101562,0.109375 -0.089843,0.277344 0.027344,0.371094c0.050781,0.042969 0.117187,0.0625 0.179687,0.0625c0.082032,0 0.160157,-0.023438 0.214844,-0.085938l2.164063,-2.304687c0.078125,-0.089844 0.089843,-0.214844 0.023437,-0.316406zm-13.574218,-0.121094l1.796874,-2.542969l1.789063,2.542969l-3.585937,0zm2.316406,-2.761719l3.570312,0l-1.785156,2.542969l-1.785156,-2.542969zm4.089844,0.21875l1.792968,2.542969l-3.578125,0l1.785157,-2.542969zm0,9.234375l-1.933594,-6.164062l3.867187,0l-1.933593,6.164062zm2.308593,-6.90625l-1.785156,-2.546875l3.574219,0l-1.789063,2.546875zm0.527344,0.214844l1.785156,-2.542969l1.785157,2.542969l-3.570313,0zm0,0"/>
  <path id="svg_2" fill-rule="nonzero" fill="#13c0f9" d="m4.429688,8.597656c-0.726563,0 -1.320313,-0.550781 -1.320313,-1.230468c0,-0.140626 -0.125,-0.261719 -0.28125,-0.261719c-0.15625,0 -0.28125,0.121093 -0.28125,0.261719c0,0.679687 -0.59375,1.230468 -1.320313,1.230468c-0.152343,0 -0.28125,0.117188 -0.28125,0.261719c0,0.148437 0.128907,0.265625 0.28125,0.265625c0.726563,0 1.320313,0.550781 1.320313,1.230469c0,0.144531 0.125,0.261719 0.28125,0.261719c0.15625,0 0.28125,-0.117188 0.28125,-0.261719c0,-0.679688 0.59375,-1.230469 1.320313,-1.230469c0.15625,0 0.28125,-0.117188 0.28125,-0.265625c0,-0.144531 -0.125,-0.261719 -0.28125,-0.261719zm-1.601563,0.832032c-0.152344,-0.234376 -0.359375,-0.425782 -0.609375,-0.570313c0.25,-0.140625 0.457031,-0.335937 0.609375,-0.566406c0.152344,0.230469 0.359375,0.425781 0.609375,0.566406c-0.25,0.144531 -0.457031,0.335937 -0.609375,0.570313zm0,0"/>
  <path id="svg_3" fill-rule="nonzero" fill="#13c0f9" d="m14.140625,1.050781c-0.46875,0 -0.84375,-0.351562 -0.84375,-0.789062c0,-0.140625 -0.125,-0.261719 -0.28125,-0.261719c-0.160156,0 -0.28125,0.121094 -0.28125,0.261719c0,0.4375 -0.378906,0.789062 -0.847656,0.789062c-0.15625,0 -0.28125,0.117188 -0.28125,0.265625c0,0.144532 0.125,0.261719 0.28125,0.261719c0.46875,0 0.847656,0.351563 0.847656,0.789063c0,0.144531 0.121094,0.261718 0.28125,0.261718c0.15625,0 0.28125,-0.117187 0.28125,-0.261718c0,-0.4375 0.375,-0.789063 0.84375,-0.789063c0.160156,0 0.28125,-0.117187 0.28125,-0.261719c0,-0.148437 -0.121094,-0.265625 -0.28125,-0.265625zm-1.125,0.527344c-0.078125,-0.101563 -0.175781,-0.191406 -0.28125,-0.261719c0.105469,-0.074218 0.203125,-0.164062 0.28125,-0.265625c0.078125,0.101563 0.171875,0.191407 0.28125,0.265625c-0.109375,0.070313 -0.203125,0.160156 -0.28125,0.261719zm0,0"/>
  <path id="svg_4" fill-rule="nonzero" fill="#13c0f9" d="m11.347656,8.816406c-0.050781,-0.046875 -0.125,-0.078125 -0.199218,-0.078125c-0.070313,0 -0.144532,0.03125 -0.203126,0.078125c-0.050781,0.050782 -0.078124,0.117188 -0.078124,0.1875c0,0.066406 0.027343,0.136719 0.078124,0.1875c0.058594,0.046875 0.132813,0.074219 0.203126,0.074219c0.074218,0 0.148437,-0.027344 0.199218,-0.074219c0.050782,-0.050781 0.082032,-0.121094 0.082032,-0.1875c0,-0.070312 -0.03125,-0.136718 -0.082032,-0.1875zm0,0"/>
 </g>
</svg>