<svg width="640" height="512" xmlns="http://www.w3.org/2000/svg">
 <!-- Font Awesome Free 5.15.4 by @fontawesome - https://fontawesome.com License - https://fontawesome.com/license/free (Icons: CC BY 4.0, Fonts: SIL OFL 1.1, Code: MIT License) -->

 <g>
  <title>Layer 1</title>
  <g>
   <!-- Font Awesome Free 5.15.4 by @fontawesome - https://fontawesome.com License - https://fontawesome.com/license/free (Icons: CC BY 4.0, Fonts: SIL OFL 1.1, Code: MIT License) -->
   <path d="m434.7,63.93036l-85.9,0c-8,0 -15.7,3 -21.6,8.4l-98.3,90c-0.1,0.1 -0.2,0.3 -0.3,0.4c-16.6,15.6 -16.3,40.5 -2.1,56c12.7,13.9 39.4,17.6 56.1,2.7c0.1,-0.1 0.3,-0.1 0.4,-0.2l79.9,-73.2c6.5,-5.9 16.7,-5.5 22.6,1c6,6.5 5.5,16.6 -1,22.6l-26.1,23.9l145.6,118.2c2.9,2.4 5.5,5 7.9,7.7l0,-193.5l-54.6,-54.6c-5.9,-6 -14.1,-9.4 -22.6,-9.4zm109.3,64.2l0,223.9c0,17.7 14.3,32 32,32l64,0l0,-255.9l-96,0zm48,223.9c-8.8,0 -16,-7.2 -16,-16s7.2,-16 16,-16s16,7.2 16,16s-7.2,16 -16,16zm-592,31.9l64,0c17.7,0 32,-14.3 32,-32l0,-223.8l-96,0l0,255.8zm48,-63.9c8.8,0 16,7.2 16,16s-7.2,16 -16,16s-16,-7.2 -16,-16c0,-8.9 7.2,-16 16,-16zm435.9,18.6l-149.3,-121.2l-30,27.5c-29.7,27.1 -75.2,24.5 -101.7,-4.4c-26.9,-29.4 -24.8,-74.9 4.4,-101.7l81.8,-74.9l-83.8,0c-8.5,0 -16.6,3.4 -22.6,9.4l-54.7,54.6l0,223.9l18.3,0l90.5,81.9c27.4,22.3 67.7,18.1 90,-9.3l0.2,-0.2l17.9,15.5c15.9,13 39.4,10.5 52.3,-5.4l31.4,-38.6l5.4,4.4c13.7,11.1 33.9,9.1 45,-4.7l9.5,-11.7c11.2,-13.8 9.1,-33.9 -4.6,-45.1z"/>
  </g>
 </g>
</svg>