<svg width="640" height="512" xmlns="http://www.w3.org/2000/svg">
 <!-- Font Awesome Free 5.15.4 by @fontawesome - https://fontawesome.com License - https://fontawesome.com/license/free (Icons: CC BY 4.0, Fonts: SIL OFL 1.1, Code: MIT License) -->

 <g>
  <title>Layer 1</title>
  <g stroke="null">
   <!-- Font Awesome Free 5.15.4 by @fontawesome - https://fontawesome.com License - https://fontawesome.com/license/free (Icons: CC BY 4.0, Fonts: SIL OFL 1.1, Code: MIT License) -->
   <path stroke="null" d="m575.0625,147.42858l-489.12501,0c-19.29533,0 -34.9375,-16.27777 -34.9375,-36.35714l0,-72.71428c0,-20.07937 15.64217,-36.35714 34.9375,-36.35714l489.12501,0c19.29533,0 34.9375,16.27777 34.9375,36.35714l0,72.71428c0,20.07937 -15.64217,36.35714 -34.9375,36.35714zm-52.40625,-99.98214c-14.47177,0 -26.20313,12.20805 -26.20313,27.26786s11.73136,27.26786 26.20313,27.26786s26.20313,-12.20805 26.20313,-27.26786s-11.73136,-27.26786 -26.20313,-27.26786zm-69.875,0c-14.47177,0 -26.20313,12.20805 -26.20313,27.26786s11.73136,27.26786 26.20313,27.26786s26.20313,-12.20805 26.20313,-27.26786s-11.73136,-27.26786 -26.20313,-27.26786zm122.28125,281.76785l-489.12501,0c-19.29533,0 -34.9375,-16.27777 -34.9375,-36.35714l0,-72.71428c0,-20.07937 15.64217,-36.35714 34.9375,-36.35714l489.12501,0c19.29533,0 34.9375,16.27777 34.9375,36.35714l0,72.71428c0,20.07937 -15.64217,36.35714 -34.9375,36.35714zm-52.40625,-99.98214c-14.47177,0 -26.20313,12.20805 -26.20313,27.26786s11.73136,27.26786 26.20313,27.26786s26.20313,-12.20805 26.20313,-27.26786s-11.73136,-27.26786 -26.20313,-27.26786zm-69.875,0c-14.47177,0 -26.20313,12.20805 -26.20313,27.26786s11.73136,27.26786 26.20313,27.26786s26.20313,-12.20805 26.20313,-27.26786s-11.73136,-27.26786 -26.20313,-27.26786zm122.28125,281.76785l-489.12501,0c-19.29533,0 -34.9375,-16.27777 -34.9375,-36.35714l0,-72.71428c0,-20.07937 15.64217,-36.35714 34.9375,-36.35714l489.12501,0c19.29533,0 34.9375,16.27777 34.9375,36.35714l0,72.71428c0,20.07937 -15.64217,36.35714 -34.9375,36.35714zm-52.40625,-99.98214c-14.47177,0 -26.20313,12.20805 -26.20313,27.26786s11.73136,27.26786 26.20313,27.26786s26.20313,-12.20805 26.20313,-27.26786s-11.73136,-27.26786 -26.20313,-27.26786zm-69.875,0c-14.47177,0 -26.20313,12.20805 -26.20313,27.26786s11.73136,27.26786 26.20313,27.26786s26.20313,-12.20805 26.20313,-27.26786s-11.73136,-27.26786 -26.20313,-27.26786z"/>
  </g>
 </g>
</svg>